<?xml version="1.0" encoding="UTF-8"?>
<svg id="Layer_1" xmlns="http://www.w3.org/2000/svg" version="1.1" viewBox="0 0 392.1 383.2">
  <!-- Generator: Adobe Illustrator 29.3.1, SVG Export Plug-In . SVG Version: 2.1.0 Build 151)  -->
  <defs>
    <style>
      .st0 {
        fill: none;
      }
    </style>
  </defs>
  <path class="st0" d="M181.4,186c7.6,17,15.4,34,16.7,36.8,0,0,6.6-13.4,14.2-28.7-6.4-14.5-12.7-28.6-16.5-37.1-3.4,6.9-8.6,17.5-14.4,29.1Z"/>
  <path d="M274.7,137c1.1,1.8,2.3,3.5,2.6,5.8.3,2.3.9,4.2-.8,7.9-1.9,4.3-35.4,72-35.4,72-1.3-2.8-9.1-19.7-16.6-36.7,8.9-18,16.6-33.6,18.1-36.7,4.3-8.4,7.6-10.5,9.7-11.5.5-.3.5-.1.6-.9h-21.4c1.1,1.8,2.3,3.5,2.6,5.8.3,2.3.9,4.2-.8,7.9-.7,1.7-6.3,13.1-12.9,26.4-6-13.6-11.1-25.6-11.5-27.8-.8-4.8.6-9.1,4.5-12.3h-31.2c2.3,1.5,5.7,5,8.8,10.4-.1.9-.4,2-1,3.2-.7,1.7-6.3,13.1-12.8,26.3-6-13.6-11.1-25.5-11.4-27.7-.8-4.8.1-8.1,2.2-12.3h-28.9c2.8,1.9,7.1,6.4,10.6,13.9,2.9,6.3,10.9,24.2,19.2,43-7.6,15.3-14.2,28.8-14.2,28.8-1.3-2.8-9.1-19.7-16.6-36.7-1.3-3-2.7-6-4-9-6-13.6-11.1-25.6-11.5-27.8-.8-4.8.1-8.1,2.2-12.3h-28.9c2.8,1.9,7.1,6.4,10.6,13.9,2.9,6.3,10.9,24.3,19.2,43.1,1.3,3,2.6,6,4,9,8.6,19.4,16.7,37.8,19,43.2h2.9c2.6-5.3,11.7-23.8,21.3-43.3,8.6,19.5,16.7,37.9,19.1,43.3h2.9c2.6-5.3,11.7-23.8,21.2-43.2,8.6,19.4,16.7,37.8,19,43.2h2.9c5.9-11.9,44-89.6,47.7-96.7,4.3-8.4,7.6-10.5,9.7-11.5.5-.3.5-.1.6-.9h-21.4ZM198.1,222.7c-1.3-2.8-9.1-19.8-16.7-36.8,5.7-11.6,10.9-22.2,14.4-29.1,3.8,8.5,10.1,22.6,16.5,37.1-7.5,15.3-14.2,28.7-14.2,28.7Z"/>
</svg>