<?xml version="1.0" encoding="UTF-8"?><svg id="Layer_1" xmlns="http://www.w3.org/2000/svg" viewBox="0 0 889.99 383.16"><defs><style>.cls-1{fill:#fff;}</style></defs><path class="cls-1" d="M253.12,246.52h19.37c-.94-1.51-1.46-2.39-1.94-3.86-1.72-5.26,1.19-15.42,4.41-19.56l48.41.24c2.91,6.53,8.28,16.99,3.11,23.28h28.78c-4.47-1.7-8.59-6.8-11.87-14.68l-41.69-94.45h-20.79s5.67,5.72,5.67,5.72l9.89,21.18-31.2,63.98c-2.96,5.79-7.19,14.01-12.16,18.16ZM299.78,171.55l20.2,45.37h-42.07l21.87-45.37Z"/><path class="cls-1" d="M515.45,210.75c-5.65-20.43-42.92-35.62-44.45-52.41-.77-8.45,3.46-16.15,12.45-16.92,11.27-.97,21.67,6.56,27.7,15.51.36-2.04,2.04-13.37,2.49-16.04-.48.02-2.81.86-4.18,1.07-4.82.75-10.68-3.53-15.63-4.79-19.57-4.98-40.71,7.34-36.5,29.3,4.51,23.52,42.68,33.44,44.62,56.12,1.71,20.05-18.11,22.82-31.75,12.92-5.78-4.2-8.42-9.41-12.59-14.71-.35-.45-.15-.29-.99-.22v21.03c1.17-.79,2.22-1.23,4.29-1.55,4.33-.65,10.74,3.76,15.22,5.01,21.94,6.12,46.02-10.06,39.31-34.32Z"/><path class="cls-1" d="M342.06,137.46l-4.4,16.08c3.03-3.53,6.69-6.4,11.19-7.9,5.81-1.94,21.71-2.71,33.71-2.62l-.29,96.17c-.04,1.31-.81,5.16-4.43,7.45h24.27c-2.87-1.27-4.43-4.9-4.43-7.73,0-9.27.01-95.9.01-95.9,12.01-.1,28.03.67,33.87,2.61,4.5,1.5,8.15,4.37,11.19,7.9l-4.4-16.08h-96.28Z"/><path class="cls-1" d="M776.62,137.55h-16.39c1.89,2.35,4.37,7.58,4.37,12.65,0,4.56.09,47.45.13,66.46l-79.87-79.19h-23.51c-.06.8.21,1.18.71,1.6,4.51,3.81,12.31,11.01,17.37,15.88.2.19.15,1.24.16,2.38,0,7.32.05,66.87.05,77.15,0,1.53,0,2.92-.39,4.28-.71,2.47-1.97,5.38-4.07,7.9h16.03c-1.84-2.36-4.28-7.31-4.28-12.37,0-5.9-.15-71.41-.15-71.41,1.62,1.3,69.49,69.67,82.3,81.3,2.8,2.54,1.87,2.14,3.06,2.2v-22.36l-.02-.02c-.02-21.35-.05-66.05-.05-73.98,0-1.53,0-2.92.4-4.28.73-2.47,2-5.65,4.15-8.18Z"/><path class="cls-1" d="M248.78,137.56c1.06,1.8,2.32,3.52,2.64,5.75.33,2.33.86,4.17-.78,7.91-1.87,4.27-35.38,72.04-35.38,72.04-1.3-2.76-9.07-19.71-16.64-36.66,8.85-17.97,16.59-33.64,18.14-36.66,4.31-8.37,7.58-10.47,9.67-11.46.54-.25.54-.1.59-.93h-21.36c1.06,1.8,2.32,3.52,2.64,5.75.33,2.33.86,4.17-.78,7.91-.73,1.67-6.34,13.13-12.88,26.43-6.02-13.65-11.1-25.58-11.46-27.81-.77-4.77.13-8.13,2.17-12.31h-28.87c2.81,1.85,7.11,6.4,10.61,13.93,2.91,6.27,10.91,24.27,19.23,43.07-7.54,15.29-14.19,28.73-14.19,28.73-2.6-5.54-31.2-68.03-32.07-73.42-.77-4.77.13-8.13,2.17-12.31h-28.87c2.81,1.85,7.11,6.4,10.61,13.93,6.39,13.75,37.25,83.93,42.21,95.21h2.89c2.61-5.32,11.67-23.75,21.21-43.16,8.58,19.42,16.67,37.84,19.01,43.16h2.89c5.85-11.92,44.01-89.6,47.68-96.73,4.31-8.37,7.58-10.47,9.67-11.46.54-.25.54-.1.59-.93h-21.36Z"/><path class="cls-1" d="M654.69,203.74c8.68-43.09-25.84-71-66.49-67.93-34.22,2.59-59.77,28.57-54.71,64.13,8.86,62.27,109.18,63.46,121.2,3.8ZM590.82,242.21c-26.88-1.95-40.27-26.1-40.37-50.35-.1-24.93,13.85-49.95,41.64-51.03,31.41-1.23,46.74,25.26,46.39,51.48-.35,26.22-16.37,52.18-47.66,49.9Z"/></svg>