<?xml version="1.0" encoding="UTF-8"?><svg id="Layer_1" xmlns="http://www.w3.org/2000/svg" viewBox="0 0 2164.78 383.16"><defs><style>.cls-1{fill:none;}</style></defs><path d="M309.9,246.52h19.37c-.94-1.51-1.46-2.39-1.94-3.86-1.72-5.26,1.19-15.42,4.41-19.56l48.41.24c2.91,6.53,8.28,16.99,3.11,23.28h28.78c-4.47-1.7-8.59-6.8-11.87-14.68l-41.69-94.45h-20.79s5.67,5.72,5.67,5.72l9.89,21.18-31.2,63.98c-2.96,5.79-7.19,14.01-12.16,18.16ZM356.56,171.55l20.2,45.37h-42.07l21.87-45.37Z"/><path d="M572.23,210.75c-5.65-20.43-42.92-35.62-44.45-52.41-.77-8.45,3.46-16.15,12.45-16.92,11.27-.97,21.67,6.56,27.7,15.51.36-2.04,2.04-13.37,2.49-16.04-.48.02-2.81.86-4.18,1.07-4.82.75-10.68-3.53-15.63-4.79-19.57-4.98-40.71,7.34-36.5,29.3,4.51,23.52,42.68,33.44,44.62,56.12,1.71,20.05-18.11,22.82-31.75,12.92-5.78-4.2-8.42-9.41-12.59-14.71-.35-.45-.15-.29-.99-.22v21.03c1.17-.79,2.22-1.23,4.29-1.55,4.33-.65,10.74,3.76,15.22,5.01,21.94,6.12,46.02-10.06,39.31-34.32Z"/><path d="M398.84,137.46l-4.4,16.08c3.03-3.53,6.69-6.4,11.19-7.9,5.81-1.94,21.71-2.71,33.71-2.62l-.29,96.17c-.04,1.31-.81,5.16-4.43,7.45h24.27c-2.87-1.27-4.43-4.9-4.43-7.73,0-9.27.01-95.9.01-95.9,12.01-.1,28.03.67,33.87,2.61,4.5,1.5,8.15,4.37,11.19,7.9l-4.4-16.08h-96.28Z"/><path d="M833.4,137.55h-16.39c1.89,2.35,4.37,7.58,4.37,12.65,0,4.56.09,47.45.13,66.46l-79.87-79.19h-23.51c-.06.8.21,1.18.71,1.6,4.51,3.81,12.31,11.01,17.37,15.88.2.19.15,1.24.16,2.38,0,7.32.05,66.87.05,77.15,0,1.53,0,2.92-.39,4.28-.71,2.47-1.97,5.38-4.07,7.9h16.03c-1.84-2.36-4.28-7.31-4.28-12.37,0-5.9-.15-71.41-.15-71.41,1.62,1.3,69.49,69.67,82.3,81.3,2.8,2.54,1.87,2.14,3.06,2.2v-22.36l-.02-.02c-.02-21.35-.05-66.05-.05-73.98,0-1.53,0-2.92.4-4.28.73-2.47,2-5.65,4.15-8.18Z"/><path d="M1542.22,195.4c0,2.32.12,18.68.04,27.24-.19,19.93-29.52,21.48-44.24,16.32-27.86-9.77-33.97-48.53-23.45-72.9,13.31-30.8,54.64-32.32,75.11-7.91.36-2.03,1.85-15.63,1.94-16.93-.25.11-1.6,1.22-4.3,1.34-3.73.17-15.1-4.54-20.11-5.53-41.23-8.11-80.34,17.99-74.36,62.68,4.65,34.73,36.31,49.25,68.53,47,8.94-.62,13.62-4.15,21.57-6.24,4.83-1.27,9.75-.84,12.56,1.22v-46.33c0,.09,4.5-6.88,4.44-6.97h-22.21l4.48,6.98Z"/><path d="M1972.53,203.34c34.17-13.92,27.66-65.69-12.27-65.69-11.28,0-26.76-.06-36.41-.06.2.73.49.38,2.23,1.1,1.94.79,3.17,2.4,3.16,5.18l-.2,94.79c0,2.52-1.69,6.93-5.2,7.99,0,0,25.39.02,25.37.01-1.68-.87-5.3-3.08-5.39-7.27v-32.23s18.88.18,28.71-3.82ZM1943.82,200.62v-57.49c0-.12,8.91-.01,9.77.03,3.33.16,6.66.57,9.86,1.56,4.95,1.53,8.14,3.58,11.24,7.71,5.25,7,7.32,16.42,5.71,24.99-1.39,7.43-5.2,15.33-11.88,19-6.99,3.83-16.55,4.25-24.69,4.2Z"/><path d="M1787.88,203.74c8.68-43.09-25.84-71-66.49-67.93-34.22,2.59-59.77,28.57-54.71,64.13,8.86,62.27,109.18,63.46,121.2,3.8ZM1724.01,242.21c-26.88-1.95-40.27-26.1-40.37-50.35-.1-24.93,13.85-49.95,41.64-51.03,31.41-1.23,46.74,25.26,46.39,51.48-.35,26.22-16.37,52.18-47.66,49.9Z"/><path d="M1380.43,137.45l-5.12,11.69c-4.71-5.09-9.54-5.71-10.75-5.71h-42.32l.03,45.55h38.01c2.07,0,4.65-.39,7.24-4.3l-.02,14.75c-.94-2.67-5.37-4.52-7.41-4.52h-38.01v46l43.64-.22c5.97,0,12.81-5.92,14.41-8.29l-6.28,14.22h-72.12c.26-.61.43-.65.44-.66,3.75-1.79,5.29-5.92,5.29-9.04,0-33.37-.34-83.77-.34-93.03,0-5.07-5.37-6.45-5.37-6.45h78.69Z"/><path d="M1289.75,231.64c-2.16,3.06-7.46,6.61-13.07,7.84-8.48,1.87-35.08,1.62-44.16.56-.67-.08-1.21-.08-1.66-.53-.17-.18-.53-92.15-.53-92.15,0-8.79,5.4-9.79,5.4-9.79h-25.35c4.67,1.84,5.13,6.65,5.13,10.98l.12,91.88-4.57,6.14,74.4.06,4.28-15Z"/><path d="M1177.63,137.53c4.05,4.74.7,11.02-.7,14.37l-23.98,50.84-20.07-38.64-2.98-6.23c-3.6-8.2-6.73-11.32-5-16.62.49-1.49,1.3-2.56,2.96-3.72h-30.01c5.01,4.18,8.83,9.19,11.82,15.03l35.28,67.01-10.37,21.44-7.8,5.62h14.71s45.72-96.66,45.72-96.66c2.88-6.12,4.05-10.03,9.26-12.68l-18.84.23Z"/><path d="M966.3,210.94c-5.67-20.52-43.12-35.79-44.66-52.66-.77-8.49,3.47-16.22,12.51-17,11.32-.98,21.78,6.6,27.83,15.58.36-2.05,2.05-13.44,2.5-16.11-.48.02-2.82.86-4.2,1.08-4.84.75-10.73-3.54-15.7-4.81-19.66-5-40.9,7.38-36.67,29.44,4.53,23.63,42.88,33.6,44.83,56.39,1.72,20.15-18.2,22.93-31.9,12.98-5.81-4.22-8.46-9.46-12.64-14.78-.36-.45-.15-.29-.99-.23v21.13c1.18-.79,2.23-1.24,4.31-1.55,4.35-.66,10.8,3.78,15.29,5.03,22.04,6.15,46.24-10.11,39.5-34.49Z"/><path d="M1906.56,137.53c-5.25,0-10.5-.01-15.75-.02,2.77.76,3.65,4.26,3.89,7.45.51,8.31.04,12.39.05,20.71.01,11.23.02,22.46.02,33.69,0,15.67-7.59,32.26-23.94,37.34-11.41,3.55-25.36.84-34.11-7.04-7.55-6.53-10.36-16-10.36-28.14,0,0,0-52.56.02-52.56.35-4.4,1.99-9.15,5.54-11.43-8.25-.01-17.55-.03-25.8-.04,3.28,3.15,4.46,6.76,4.67,11.07.69,14.12,0,52.13,0,52.13,0,18.31,7.09,32.05,20.5,39.74,15.92,9.13,37.81,8.72,53.36-.97,13.55-8.44,18.8-24.75,18.81-39.75,0-4.4,0-8.79-.01-13.19-.01-12.49-.03-28.33-.04-40.82,0-2.8.87-6.9,3.15-8.16Z"/><path d="M305.56,137.56c1.06,1.8,2.32,3.52,2.64,5.75.33,2.33.86,4.17-.78,7.91-1.87,4.27-35.38,72.04-35.38,72.04-1.3-2.76-9.07-19.71-16.64-36.66,8.85-17.97,16.59-33.64,18.14-36.66,4.31-8.37,7.58-10.47,9.67-11.46.54-.25.54-.1.59-.93h-21.36c1.06,1.8,2.32,3.52,2.64,5.75.33,2.33.86,4.17-.78,7.91-.73,1.67-6.34,13.13-12.88,26.43-6.02-13.65-11.1-25.58-11.46-27.81-.77-4.77.13-8.13,2.17-12.31h-28.87c2.81,1.85,7.11,6.4,10.61,13.93,2.91,6.27,10.91,24.27,19.23,43.07-7.54,15.29-14.19,28.73-14.19,28.73-2.6-5.54-31.2-68.03-32.07-73.42-.77-4.77.13-8.13,2.17-12.31h-28.87c2.81,1.85,7.11,6.4,10.61,13.93,6.39,13.75,37.25,83.93,42.21,95.21h2.89c2.61-5.32,11.67-23.75,21.21-43.16,8.58,19.42,16.67,37.84,19.01,43.16h2.89c5.85-11.92,44.01-89.6,47.68-96.73,4.31-8.37,7.58-10.47,9.67-11.46.54-.25.54-.1.59-.93h-21.36Z"/><path d="M985.38,137.46l-4.4,16.08c3.03-3.53,6.69-6.4,11.19-7.9,5.81-1.94,21.71-2.71,33.71-2.62l-.29,96.17c-.04,1.31-.81,5.16-4.43,7.45h24.27c-2.87-1.27-4.43-4.9-4.43-7.73,0-9.27.01-95.9.01-95.9,12.01-.1,28.03.67,33.87,2.61,4.5,1.5,8.15,4.37,11.19,7.9l-4.4-16.08h-96.28Z"/><path d="M711.47,203.74c8.68-43.09-25.84-71-66.49-67.93-34.22,2.59-59.77,28.57-54.71,64.13,8.86,62.27,109.18,63.46,121.2,3.8ZM647.6,242.21c-26.88-1.95-40.27-26.1-40.37-50.35-.1-24.93,13.85-49.95,41.64-51.03,31.41-1.23,46.74,25.26,46.39,51.48-.35,26.22-16.37,52.18-47.66,49.9Z"/><path class="cls-1" d="M1597.58,153.11v-6.95c-.01,1.83,0,4.31,0,6.95Z"/><path class="cls-1" d="M1597.58,153.11v47.75c8.02.03,17.31-.46,24.14-4.23,6.68-3.68,10.49-11.62,11.88-19.09,1.61-8.62-.46-18.08-5.71-25.12-3.1-4.15-6.29-6.21-11.24-7.74-3.19-.99-6.53-1.41-9.86-1.57-.73-.04-7.3-.12-9.22-.07v3.12c-.01,1.83,0,4.31,0,6.95Z"/><path d="M1649.62,241.28c-9.69-9.12-32.9-32.61-34.94-34.65,0,0-.16-.16-.31-.31,4.11-.57,8.21-1.43,11.37-2.72,34.17-13.99,27.66-66.02-12.27-66.02-4.79,0-10.34-.01-15.88-.03h0c-6.24,0-12.87.06-19.69.03.19.73.47.38,2.15,1.1,1.87.79,3.06,2.4,3.05,5.18l-.19,94.7c0,3.77-1.63,7.04-5,8.11,0,0-.01,0,0,0,.58,0,25.06,0,24.96-.03-3.9-1.48-5.2-4.9-5.2-7.34,0,0,0-30.51,0-31.77l30.63,30.53c1.14,1.16,2.03,2.58,2.37,4.17.31,1.47.18,2.91-.43,4.4,0,0,0,0,0,0h27.6v-.41c-2.8,0-4.92-1.85-8.22-4.95ZM1606.8,143.12c3.33.16,6.66.58,9.86,1.57,4.95,1.53,8.14,3.59,11.24,7.74,5.25,7.04,7.32,16.5,5.71,25.12-1.39,7.47-5.2,15.41-11.88,19.09-6.83,3.77-16.12,4.25-24.14,4.23v-47.75c0-2.64-.01-5.12,0-6.95v-3.12c1.92-.05,8.49.03,9.22.07Z"/></svg>