<?xml version="1.0" encoding="UTF-8"?>
<svg id="Layer_1" xmlns="http://www.w3.org/2000/svg" version="1.1" viewBox="0 0 2164.8 383.2">
  <!-- Generator: Adobe Illustrator 29.3.1, SVG Export Plug-In . SVG Version: 2.1.0 Build 151)  -->
  <defs>
    <style>
      .st0 {
        fill: #fff;
      }
    </style>
  </defs>
  <path class="st0" d="M309.9,246.5h19.4c-.9-1.5-1.5-2.4-1.9-3.9-1.7-5.3,1.2-15.4,4.4-19.6l48.4.2c2.9,6.5,8.3,17,3.1,23.3h28.8c-4.5-1.7-8.6-6.8-11.9-14.7l-41.7-94.5h-20.8s5.7,5.7,5.7,5.7l9.9,21.2-31.2,64c-3,5.8-7.2,14-12.2,18.2ZM356.6,171.5l20.2,45.4h-42.1l21.9-45.4Z"/>
  <path class="st0" d="M572.2,210.7c-5.6-20.4-42.9-35.6-44.4-52.4-.8-8.4,3.5-16.1,12.5-16.9,11.3-1,21.7,6.6,27.7,15.5.4-2,2-13.4,2.5-16-.5,0-2.8.9-4.2,1.1-4.8.7-10.7-3.5-15.6-4.8-19.6-5-40.7,7.3-36.5,29.3,4.5,23.5,42.7,33.4,44.6,56.1,1.7,20.1-18.1,22.8-31.7,12.9-5.8-4.2-8.4-9.4-12.6-14.7-.4-.5-.1-.3-1-.2v21c1.2-.8,2.2-1.2,4.3-1.5,4.3-.7,10.7,3.8,15.2,5,21.9,6.1,46-10.1,39.3-34.3Z"/>
  <path class="st0" d="M398.8,137.5l-4.4,16.1c3-3.5,6.7-6.4,11.2-7.9,5.8-1.9,21.7-2.7,33.7-2.6l-.3,96.2c0,1.3-.8,5.2-4.4,7.5h24.3c-2.9-1.3-4.4-4.9-4.4-7.7,0-9.3,0-95.9,0-95.9,12-.1,28,.7,33.9,2.6,4.5,1.5,8.2,4.4,11.2,7.9l-4.4-16.1h-96.3Z"/>
  <path class="st0" d="M833.4,137.5h-16.4c1.9,2.3,4.4,7.6,4.4,12.6s0,47.5.1,66.5l-79.9-79.2h-23.5c0,.8.2,1.2.7,1.6,4.5,3.8,12.3,11,17.4,15.9.2.2.2,1.2.2,2.4,0,7.3,0,66.9,0,77.1s0,2.9-.4,4.3c-.7,2.5-2,5.4-4.1,7.9h16c-1.8-2.4-4.3-7.3-4.3-12.4s-.1-71.4-.1-71.4c1.6,1.3,69.5,69.7,82.3,81.3,2.8,2.5,1.9,2.1,3.1,2.2v-22.4h0c0-21.4,0-66.1,0-74s0-2.9.4-4.3c.7-2.5,2-5.6,4.1-8.2Z"/>
  <path class="st0" d="M1542.2,195.4c0,2.3.1,18.7,0,27.2-.2,19.9-29.5,21.5-44.2,16.3-27.9-9.8-34-48.5-23.4-72.9,13.3-30.8,54.6-32.3,75.1-7.9.4-2,1.8-15.6,1.9-16.9-.3.1-1.6,1.2-4.3,1.3-3.7.2-15.1-4.5-20.1-5.5-41.2-8.1-80.3,18-74.4,62.7,4.6,34.7,36.3,49.3,68.5,47,8.9-.6,13.6-4.1,21.6-6.2,4.8-1.3,9.8-.8,12.6,1.2v-46.3c0,0,4.5-6.9,4.4-7h-22.2l4.5,7Z"/>
  <path class="st0" d="M1972.5,203.3c34.2-13.9,27.7-65.7-12.3-65.7s-26.8,0-36.4,0c.2.7.5.4,2.2,1.1,1.9.8,3.2,2.4,3.2,5.2l-.2,94.8c0,2.5-1.7,6.9-5.2,8,0,0,25.4,0,25.4,0-1.7-.9-5.3-3.1-5.4-7.3v-32.2s18.9.2,28.7-3.8ZM1943.8,200.6v-57.5c0-.1,8.9,0,9.8,0,3.3.2,6.7.6,9.9,1.6,4.9,1.5,8.1,3.6,11.2,7.7,5.2,7,7.3,16.4,5.7,25-1.4,7.4-5.2,15.3-11.9,19-7,3.8-16.5,4.3-24.7,4.2Z"/>
  <path class="st0" d="M1787.9,203.7c8.7-43.1-25.8-71-66.5-67.9-34.2,2.6-59.8,28.6-54.7,64.1,8.9,62.3,109.2,63.5,121.2,3.8ZM1724,242.2c-26.9-2-40.3-26.1-40.4-50.3-.1-24.9,13.8-49.9,41.6-51,31.4-1.2,46.7,25.3,46.4,51.5-.3,26.2-16.4,52.2-47.7,49.9Z"/>
  <path class="st0" d="M1380.4,137.5l-5.1,11.7c-4.7-5.1-9.5-5.7-10.8-5.7h-42.3v45.6h38c2.1,0,4.6-.4,7.2-4.3v14.8c-1-2.7-5.4-4.5-7.4-4.5h-38v46l43.6-.2c6,0,12.8-5.9,14.4-8.3l-6.3,14.2h-72.1c.3-.6.4-.7.4-.7,3.8-1.8,5.3-5.9,5.3-9,0-33.4-.3-83.8-.3-93s-5.4-6.5-5.4-6.5h78.7Z"/>
  <path class="st0" d="M1289.7,231.6c-2.2,3.1-7.5,6.6-13.1,7.8-8.5,1.9-35.1,1.6-44.2.6-.7,0-1.2,0-1.7-.5-.2-.2-.5-92.1-.5-92.1,0-8.8,5.4-9.8,5.4-9.8h-25.3c4.7,1.8,5.1,6.7,5.1,11v91.9c.1,0-4.5,6.1-4.5,6.1h74.4c0,0,4.3-14.9,4.3-14.9Z"/>
  <path class="st0" d="M1177.6,137.5c4,4.7.7,11-.7,14.4l-24,50.8-20.1-38.6-3-6.2c-3.6-8.2-6.7-11.3-5-16.6.5-1.5,1.3-2.6,3-3.7h-30c5,4.2,8.8,9.2,11.8,15l35.3,67-10.4,21.4-7.8,5.6h14.7s45.7-96.7,45.7-96.7c2.9-6.1,4-10,9.3-12.7l-18.8.2Z"/>
  <path class="st0" d="M966.3,210.9c-5.7-20.5-43.1-35.8-44.7-52.7-.8-8.5,3.5-16.2,12.5-17,11.3-1,21.8,6.6,27.8,15.6.4-2,2.1-13.4,2.5-16.1-.5,0-2.8.9-4.2,1.1-4.8.8-10.7-3.5-15.7-4.8-19.7-5-40.9,7.4-36.7,29.4,4.5,23.6,42.9,33.6,44.8,56.4,1.7,20.1-18.2,22.9-31.9,13-5.8-4.2-8.5-9.5-12.6-14.8-.4-.5-.1-.3-1-.2v21.1c1.2-.8,2.2-1.2,4.3-1.6,4.3-.7,10.8,3.8,15.3,5,22,6.1,46.2-10.1,39.5-34.5Z"/>
  <path class="st0" d="M1906.6,137.5c-5.2,0-10.5,0-15.7,0,2.8.8,3.6,4.3,3.9,7.4.5,8.3,0,12.4,0,20.7,0,11.2,0,22.5,0,33.7,0,15.7-7.6,32.3-23.9,37.3-11.4,3.5-25.4.8-34.1-7-7.5-6.5-10.4-16-10.4-28.1,0,0,0-52.6,0-52.6.3-4.4,2-9.2,5.5-11.4-8.2,0-17.6,0-25.8,0,3.3,3.2,4.5,6.8,4.7,11.1.7,14.1,0,52.1,0,52.1,0,18.3,7.1,32.1,20.5,39.7,15.9,9.1,37.8,8.7,53.4-1,13.6-8.4,18.8-24.8,18.8-39.7,0-4.4,0-8.8,0-13.2,0-12.5,0-28.3,0-40.8s.9-6.9,3.2-8.2Z"/>
  <path class="st0" d="M305.6,137.6c1.1,1.8,2.3,3.5,2.6,5.8.3,2.3.9,4.2-.8,7.9-1.9,4.3-35.4,72-35.4,72-1.3-2.8-9.1-19.7-16.6-36.7,8.9-18,16.6-33.6,18.1-36.7,4.3-8.4,7.6-10.5,9.7-11.5.5-.3.5-.1.6-.9h-21.4c1.1,1.8,2.3,3.5,2.6,5.8.3,2.3.9,4.2-.8,7.9-.7,1.7-6.3,13.1-12.9,26.4-6-13.6-11.1-25.6-11.5-27.8-.8-4.8.1-8.1,2.2-12.3h-28.9c2.8,1.9,7.1,6.4,10.6,13.9,2.9,6.3,10.9,24.3,19.2,43.1-7.5,15.3-14.2,28.7-14.2,28.7-2.6-5.5-31.2-68-32.1-73.4-.8-4.8.1-8.1,2.2-12.3h-28.9c2.8,1.9,7.1,6.4,10.6,13.9,6.4,13.8,37.2,83.9,42.2,95.2h2.9c2.6-5.3,11.7-23.8,21.2-43.2,8.6,19.4,16.7,37.8,19,43.2h2.9c5.9-11.9,44-89.6,47.7-96.7,4.3-8.4,7.6-10.5,9.7-11.5.5-.3.5-.1.6-.9h-21.4Z"/>
  <path class="st0" d="M985.4,137.5l-4.4,16.1c3-3.5,6.7-6.4,11.2-7.9,5.8-1.9,21.7-2.7,33.7-2.6l-.3,96.2c0,1.3-.8,5.2-4.4,7.5h24.3c-2.9-1.3-4.4-4.9-4.4-7.7,0-9.3,0-95.9,0-95.9,12-.1,28,.7,33.9,2.6,4.5,1.5,8.2,4.4,11.2,7.9l-4.4-16.1h-96.3Z"/>
  <path class="st0" d="M711.5,203.7c8.7-43.1-25.8-71-66.5-67.9-34.2,2.6-59.8,28.6-54.7,64.1,8.9,62.3,109.2,63.5,121.2,3.8ZM647.6,242.2c-26.9-2-40.3-26.1-40.4-50.3-.1-24.9,13.8-49.9,41.6-51,31.4-1.2,46.7,25.3,46.4,51.5-.3,26.2-16.4,52.2-47.7,49.9Z"/>
  <path class="st0" d="M1597.6,153.1v-6.9c0,1.8,0,4.3,0,6.9Z"/>
  <path class="st0" d="M1649.6,241.3c-9.7-9.1-32.9-32.6-34.9-34.7,0,0-.2-.2-.3-.3,4.1-.6,8.2-1.4,11.4-2.7,34.2-14,27.7-66-12.3-66s-10.3,0-15.9,0h0c-6.2,0-12.9,0-19.7,0,.2.7.5.4,2.2,1.1,1.9.8,3.1,2.4,3.1,5.2l-.2,94.7c0,3.8-1.6,7-5,8.1,0,0,0,0,0,0,.6,0,25.1,0,25,0-3.9-1.5-5.2-4.9-5.2-7.3,0,0,0-30.5,0-31.8l30.6,30.5c1.1,1.2,2,2.6,2.4,4.2.3,1.5.2,2.9-.4,4.4,0,0,0,0,0,0h27.6v-.4c-2.8,0-4.9-1.8-8.2-5ZM1606.8,143.1c3.3.2,6.7.6,9.9,1.6,4.9,1.5,8.1,3.6,11.2,7.7,5.2,7,7.3,16.5,5.7,25.1-1.4,7.5-5.2,15.4-11.9,19.1-6.8,3.8-16.1,4.3-24.1,4.2v-47.8c0-2.6,0-5.1,0-6.9v-3.1c1.9,0,8.5,0,9.2,0Z"/>
</svg>